<?xml version="1.0" encoding="UTF-8" standalone="no"?>
<svg
   xmlns:dc="http://purl.org/dc/elements/1.1/"
   xmlns:cc="http://creativecommons.org/ns#"
   xmlns:rdf="http://www.w3.org/1999/02/22-rdf-syntax-ns#"
   xmlns:svg="http://www.w3.org/2000/svg"
   xmlns="http://www.w3.org/2000/svg"
   xmlns:sodipodi="http://sodipodi.sourceforge.net/DTD/sodipodi-0.dtd"
   xmlns:inkscape="http://www.inkscape.org/namespaces/inkscape"
   version="1.1"
   id="Layer_1"
   x="0px"
   y="0px"
   width="126.64634"
   height="126.64634"
   viewBox="0 0 126.64634 126.64634"
   enable-background="new 0 0 100 100"
   xml:space="preserve"
   inkscape:version="0.48.5 r10040"
   sodipodi:docname="Barbara.svg"><metadata
   id="metadata11"><rdf:RDF><cc:Work
       rdf:about=""><dc:format>image/svg+xml</dc:format><dc:type
         rdf:resource="http://purl.org/dc/dcmitype/StillImage" /><dc:title /></cc:Work></rdf:RDF></metadata><defs
   id="defs9" /><sodipodi:namedview
   pagecolor="#ffffff"
   bordercolor="#666666"
   borderopacity="1"
   objecttolerance="10"
   gridtolerance="10"
   guidetolerance="10"
   inkscape:pageopacity="0"
   inkscape:pageshadow="2"
   inkscape:window-width="1366"
   inkscape:window-height="706"
   id="namedview7"
   showgrid="false"
   inkscape:zoom="2.36"
   inkscape:cx="12.687577"
   inkscape:cy="63.32317"
   inkscape:window-x="-8"
   inkscape:window-y="-8"
   inkscape:window-maximized="1"
   inkscape:current-layer="Layer_1"
   fit-margin-top="0"
   fit-margin-left="0"
   fit-margin-right="0"
   fit-margin-bottom="0" />
<g
   id="g3"
   transform="translate(16.116012,13.161327)">
	<path
   d="m 61.251,77.754 c -0.099,-0.305 -0.196,-0.543 -0.299,-0.725 -0.494,3.119 -1.632,5.271 -3.894,7.051 0.277,0.104 0.554,0.229 0.817,0.357 1.058,0.523 2.251,1.322 3.353,2.121 0.935,0.682 1.822,1.385 2.525,1.947 L 62.391,82.554 61.445,78.431 C 61.39,78.213 61.324,77.98 61.251,77.754 l 0,0 z m -22.309,0 c -0.073,0.227 -0.137,0.459 -0.197,0.678 l -0.942,4.123 -1.362,5.953 c 0.701,-0.564 1.591,-1.266 2.524,-1.947 1.103,-0.801 2.295,-1.6 3.354,-2.121 0.264,-0.131 0.538,-0.256 0.813,-0.357 -2.261,-1.781 -3.396,-3.932 -3.892,-7.053 -0.102,0.181 -0.201,0.419 -0.298,0.724 l 0,0 z m -0.915,-61.75 c -2.452,-1.258 -4.638,-2.636 -6.43,-4.023 -0.149,0.242 -0.299,0.491 -0.441,0.75 1.903,1.167 4.244,2.297 6.871,3.273 l 0,0 z M 75.129,39.6 c -2.318,-0.479 -3.939,2.438 -4.504,4.084 -0.029,0.078 -0.055,0.156 -0.077,0.23 -0.269,0.818 -1.652,0.642 -1.105,-0.803 0.058,-0.152 0.121,-0.309 0.184,-0.467 0.336,-2.255 0.253,-3.631 -0.027,-4.771 -0.306,-1.233 -0.892,-2.379 -1.363,-3.553 -0.575,-1.439 -1.184,-3.273 -1.638,-6.105 -0.473,-2.921 -3.111,-4.819 -8.59,-1.311 -2.197,1.109 -4.646,1.794 -7.007,2.205 -2.966,0.515 -5.872,0.626 -8.185,0.674 -1.008,0.021 -1.896,0.03 -2.625,0.056 -4.013,0.141 -7.547,2.165 -9.191,6.093 -0.527,1.25 -0.902,2.285 -0.936,3.893 -0.016,0.78 0.045,1.691 0.207,2.805 0.08,0.193 0.148,0.369 0.213,0.541 0.011,0.023 0.021,0.047 0.027,0.07 l 0.066,0.2 0.031,0.099 c 0.273,0.871 -0.748,1.201 -1.221,0.382 -0.037,-0.019 -0.897,-2.7 -2.564,-3.863 -0.582,-0.404 -1.241,-0.61 -1.999,-0.474 -3.25,0.586 -1.116,6.062 -0.288,7.654 l 0.049,0.091 c 1.064,2.008 3.328,4.447 5.763,4.927 0.14,0.006 0.278,0.051 0.39,0.15 0.117,0.092 0.188,0.223 0.215,0.361 2.385,6.646 4.184,9.705 6.239,11.598 2.587,2.379 6.215,3.389 9.198,5.18 1.055,0.635 2.372,0.596 3.558,0.607 2.798,-0.023 2.496,-0.115 4.5,-1.146 2.757,-1.424 5.976,-2.535 8.271,-4.662 2.048,-1.893 3.842,-4.959 6.219,-11.594 0.028,-0.139 0.101,-0.27 0.221,-0.361 0.108,-0.096 0.242,-0.141 0.379,-0.146 0.084,-0.018 0.25,-0.059 0.48,-0.137 2.323,-0.77 4.162,-2.656 5.283,-4.775 0.025,-0.053 0.055,-0.1 0.083,-0.146 0.013,-0.034 0.026,-0.067 0.044,-0.097 0.846,-1.668 1.367,-3.464 1.367,-4.896 10e-4,-1.197 -0.339,-2.318 -1.667,-2.593 l 0,0 z M 22.127,60.477 c -0.666,1.973 -1.414,3.959 -2.248,5.941 -0.622,1.48 -1.299,2.959 -2.025,4.428 0.847,0.262 1.996,0.402 2.86,0.514 1.487,-1.918 2.956,-4.227 3.228,-4.656 0.058,-0.141 0.154,-0.24 0.271,-0.303 0.164,-0.086 0.366,-0.102 0.544,-0.043 0.18,0.055 0.332,0.178 0.406,0.361 0.051,0.121 0.066,0.26 0.023,0.402 l -0.5,4.783 c 2.691,0.312 5.571,0.521 9.089,0.686 0.481,-3.227 0.463,-6.604 0.222,-9.836 -0.006,-0.068 -0.002,-0.131 0.01,-0.184 -0.668,-1.014 -1.33,-2.221 -2.012,-3.691 -0.121,2.66 -0.335,5.531 -0.541,7.486 -0.09,0.861 -1.395,0.729 -1.307,-0.131 0.277,-2.641 0.577,-6.965 0.631,-10.141 l 0.004,-0.064 C 30.47,55.23 30.144,54.377 29.81,53.455 29.711,53.428 29.592,53.393 29.459,53.348 27.701,52.76 26.186,51.633 24.99,50.231 c -0.741,3.3 -1.678,6.75 -2.861,10.24 l -0.002,0.006 0,0 z M 72.354,28.252 c -1.259,0.555 -3.033,1.082 -4.089,1.371 l -0.058,0.014 c 0.478,2.115 1.193,4.027 2.037,6.084 0.25,0.61 0.469,1.198 0.623,1.841 0.184,0.742 0.291,1.545 0.289,2.51 0.264,-0.314 0.549,-0.604 0.859,-0.855 l -0.002,-0.069 c 0.028,-1.852 0.099,-3.589 0.188,-5.191 -0.049,-1.613 0.063,-3.585 0.153,-5.705 l 0,0 z m 0.094,-4.446 c -1.849,0.831 -3.544,1.735 -4.997,2.655 0.201,0.469 0.354,0.989 0.442,1.553 l 0.056,0.351 c 1.152,-0.318 3.424,-0.994 4.457,-1.587 0.033,-0.979 0.053,-1.974 0.042,-2.972 l 0,0 z M 69.666,12.782 c -3.047,3.369 -5.547,6.758 -7.367,10.998 1.973,-0.257 3.506,0.342 4.484,1.564 1.629,-1.027 3.535,-2.031 5.628,-2.943 -0.147,-3.643 -0.794,-7.168 -2.745,-9.619 l 0,0 z m -3.744,-2.661 c -0.002,0.032 -0.008,0.062 -0.015,0.092 -0.437,2.143 -0.71,4.219 -0.826,6.127 1.134,-1.57 2.375,-3.065 3.683,-4.522 -0.78,-0.713 -1.717,-1.29 -2.842,-1.697 l 0,0 z M 37.998,5.805 c 1.403,2 3.932,5.135 7.264,7.338 0.25,0.167 0.506,0.329 0.768,0.481 l 0.14,0.083 c 0.046,0.026 0.086,0.055 0.118,0.084 4.083,2.647 7.968,5.994 10.254,9.328 0.295,0.145 0.576,0.291 0.85,0.443 C 55.109,17.937 49.73,11.532 45.089,7.905 44.403,7.369 45.218,6.352 45.903,6.888 c 5.188,4.055 11.162,11.353 13.188,17.496 0.05,0.156 0.049,0.295 0.008,0.415 0.569,-0.274 1.113,-0.495 1.636,-0.662 0.827,-2.074 1.839,-3.994 2.989,-5.803 -0.013,-0.05 -0.016,-0.103 -0.016,-0.16 0.012,-2.456 0.381,-5.264 0.914,-8.22 0.022,-0.129 0.05,-0.244 0.08,-0.345 C 64.626,9.533 64.562,9.459 64.549,9.41 63.786,7.078 61.743,5.602 59.417,4.666 c 1.378,4.294 2.378,9.396 2.008,13.598 -0.076,0.86 -1.381,0.749 -1.305,-0.112 C 60.499,13.824 59.333,8.43 57.859,4.126 54.928,3.255 51.91,3.091 50.622,3.064 c 2.475,2.519 4.158,4.992 5.264,7.858 1.83,2.92 3.531,6.322 4.176,8.689 0.229,0.836 -1.039,1.172 -1.266,0.337 -0.303,-1.112 -0.871,-2.505 -1.594,-3.984 0.06,0.385 0.115,0.778 0.168,1.181 0.105,0.858 -1.191,1.018 -1.303,0.158 -0.27,-2.17 -0.706,-4.065 -1.361,-5.803 L 54.615,11.359 C 54.534,11.233 54.501,11.108 54.503,10.992 53.331,8.137 51.523,5.689 48.815,3.109 45.316,3.296 41.459,3.894 37.998,5.805 l 0,0 z m -9.256,13.137 c 4.14,3.95 13.149,8.001 19.146,9.276 0.941,-0.093 1.906,-0.216 2.879,-0.384 2.27,-0.395 4.545,-1.03 6.587,-2.053 0.218,-0.139 0.435,-0.271 0.647,-0.396 -0.096,-0.012 -0.204,-0.049 -0.31,-0.118 -1.944,-1.295 -4.583,-2.249 -7.958,-3.257 -0.838,-0.25 -0.457,-1.493 0.378,-1.242 1.431,0.428 2.757,0.853 3.977,1.309 -2.276,-2.659 -5.472,-5.25 -8.771,-7.361 -0.253,-0.152 -0.504,-0.309 -0.747,-0.47 -2.067,-1.272 -4.152,-2.344 -6.057,-3.118 -0.807,-0.329 -0.311,-1.529 0.498,-1.201 0.33,0.133 0.665,0.277 1.002,0.429 -1.336,-1.425 -2.398,-2.816 -3.139,-3.875 -1.663,1.089 -3.213,2.524 -4.557,4.412 4.475,3.501 10.875,6.436 16.25,7.695 0.885,0.207 0.68,1.375 -0.223,1.276 -5.723,-0.627 -12.738,-2.892 -17.785,-5.974 -0.713,1.475 -1.327,3.151 -1.817,5.052 l 0,0 z m -0.928,4.928 c 3.627,3.199 7.405,4.557 12.104,4.683 l 0.229,-0.009 c 0.734,-0.024 1.631,-0.034 2.643,-0.055 0.303,-0.006 0.613,-0.015 0.936,-0.024 -5.485,-1.632 -11.664,-4.68 -15.321,-8.083 -0.237,1.092 -0.434,2.253 -0.591,3.488 l 0,0 z M 26.96,38.634 c 0.216,0.104 0.42,0.224 0.612,0.355 0.427,0.302 0.822,0.683 1.18,1.115 l 0.003,-0.285 c 0.04,-1.868 0.483,-3.073 1.034,-4.385 1.245,-2.973 3.453,-4.974 6.104,-6.025 -2.938,-0.599 -5.576,-1.83 -8.105,-3.862 -0.017,2.344 -0.114,7.06 -0.828,13.087 l 0,0 z M 62.801,65.91 c -0.766,1.418 -1.147,3.895 -1.42,6.68 4.779,-0.336 9.74,-0.695 14.432,-1.658 0.195,-0.039 0.367,-0.076 0.512,-0.113 C 74.247,64.532 73.1,58.223 72.52,52.344 c -0.771,0.521 -1.598,0.918 -2.439,1.115 -0.205,0.572 -0.406,1.135 -0.612,1.686 0.437,3.086 1.005,5.818 1.853,8.156 0.294,0.814 -0.941,1.248 -1.236,0.436 -0.668,-1.85 -1.168,-3.918 -1.559,-6.16 -1.365,3.296 -2.978,6.12 -5.726,8.333 l 0,0 z m -23.464,1.539 c 0.69,2.674 0.899,6.238 1.067,8.383 0.436,4.02 1.723,6.23 4.889,8.152 2.49,1.051 4.02,5.256 4.805,9.068 0.785,-3.812 2.316,-8.018 4.806,-9.068 3.167,-1.922 4.454,-4.133 4.887,-8.152 0.175,-2.209 0.392,-5.918 1.13,-8.615 -0.344,0.201 -0.701,0.4 -1.075,0.592 -1.364,0.695 -2.923,1.381 -4.784,2.342 l -0.075,0.037 c -2.129,1.105 -2.154,1.238 -5.037,1.262 -2.888,-0.023 -2.907,-0.16 -5.042,-1.262 -1.801,-0.93 -3.763,-1.731 -5.571,-2.739 l 0,0 z m -0.505,5.332 c -0.248,-2.58 -0.582,-4.91 -1.217,-6.41 -0.461,-0.324 -0.902,-0.674 -1.314,-1.057 -0.305,-0.277 -0.598,-0.578 -0.889,-0.9 0.129,2.736 0.07,5.533 -0.318,8.234 1.17,0.045 2.412,0.092 3.738,0.133 l 0,0 z m 22.305,2.653 c 0.803,0.393 1.162,1.303 1.362,1.918 0.083,0.248 0.151,0.516 0.218,0.752 l 0.953,4.164 1.785,7.791 c 0.166,0.723 -0.741,1.037 -1.131,0.584 -0.26,-0.203 -0.818,-0.662 -1.332,-1.074 -0.697,-0.562 -1.593,-1.271 -2.541,-1.963 -1.084,-0.787 -2.205,-1.531 -3.165,-2.01 -0.962,-0.475 -1.515,-0.551 -1.718,-0.475 l -0.091,0.027 c -3.188,1.291 -4.655,10.117 -4.726,13.154 0.006,0.254 -0.107,0.439 -0.266,0.545 -0.113,0.08 -0.252,0.115 -0.393,0.115 -0.139,0 -0.277,-0.037 -0.391,-0.115 -0.158,-0.105 -0.27,-0.291 -0.265,-0.545 C 49.363,95.234 47.898,86.437 44.712,85.148 L 44.62,85.121 c -0.202,-0.076 -0.754,0 -1.719,0.475 -0.956,0.479 -2.076,1.223 -3.162,2.01 -0.951,0.691 -1.845,1.4 -2.545,1.963 -0.508,0.412 -1.072,0.871 -1.33,1.074 -0.389,0.453 -1.297,0.137 -1.132,-0.584 l 1.784,-7.791 0.954,-4.164 c 0.068,-0.236 0.139,-0.504 0.22,-0.752 0.201,-0.615 0.555,-1.523 1.362,-1.918 -0.036,-0.453 -0.071,-0.904 -0.11,-1.352 -1.448,-0.043 -2.8,-0.094 -4.07,-0.146 l -0.014,0.059 c -0.15,0.805 -1.318,0.631 -1.3,-0.119 -3.766,-0.172 -6.812,-0.406 -9.677,-0.76 -0.43,-0.053 -0.609,-0.391 -0.574,-0.705 l 0.298,-2.832 c -0.604,0.883 -1.326,1.9 -2.043,2.809 -0.066,0.121 -0.174,0.221 -0.319,0.273 -0.138,0.061 -0.283,0.061 -0.418,0.02 -1.188,-0.158 -2.715,-0.311 -3.834,-0.76 -0.253,-0.1 -0.413,-0.236 -0.515,-0.369 -0.143,-0.156 -0.21,-0.367 -0.134,-0.607 0.021,-0.08 0.057,-0.156 0.1,-0.217 0.805,-1.592 1.541,-3.199 2.219,-4.811 0.824,-1.957 1.561,-3.914 2.219,-5.859 1.305,-3.842 2.302,-7.631 3.068,-11.224 -0.189,-0.293 -0.366,-0.594 -0.528,-0.901 l -0.052,-0.099 c -1.299,-2.488 -3.295,-8.703 1.21,-9.522 0.386,-0.069 0.751,-0.082 1.099,-0.044 0.928,-7.954 0.773,-13.588 0.807,-14.336 0.533,-4.396 1.572,-7.923 2.963,-10.751 -0.727,-0.494 -0.081,-1.49 0.608,-1.151 0.169,-0.301 0.341,-0.591 0.519,-0.875 l -0.223,-0.189 c -0.656,-0.571 0.21,-1.545 0.866,-0.975 l 0.087,0.075 C 32.747,8.062 34.412,6.537 36.199,5.378 36.111,4.842 36.784,4.423 37.23,4.753 40.679,2.822 44.482,2.116 47.955,1.864 c 0.117,-0.415 0.656,-0.71 1.09,-0.319 l 0.26,0.241 0.646,-0.024 c 0,0 3.306,-0.075 6.9,0.759 0.201,0.047 0.398,0.095 0.602,0.148 0.148,-0.528 1.014,-0.701 1.26,-0.04 l 0.166,0.46 c 2.85,0.954 5.667,2.628 6.793,5.587 10.59,3.055 7.588,17.454 7.832,25.296 -0.075,1.387 -0.136,2.899 -0.174,4.484 0.623,-0.22 1.311,-0.282 2.062,-0.127 0.05,0.009 0.094,0.023 0.131,0.038 0.046,0.005 0.094,0.013 0.138,0.025 1.807,0.493 2.443,2.101 2.443,3.798 0.001,1.697 -0.607,3.698 -1.508,5.473 -0.021,0.04 -0.039,0.078 -0.064,0.111 -0.019,0.049 -0.044,0.102 -0.072,0.156 -0.607,1.143 -1.564,2.406 -2.717,3.449 0.561,6.215 1.748,12.934 4.01,19.59 0.311,0.924 -1.122,1.119 -1.678,1.23 -4.82,0.988 -9.918,1.352 -14.818,1.699 -0.04,0.508 -0.081,1.018 -0.12,1.536 l 0,0 z m 12.57,-34.205 c 0.732,-0.534 1.457,0.487 0.726,1.022 -0.612,0.444 -1.248,1.548 -1.665,3.088 0.098,0.356 0.12,0.616 -0.029,1.149 -0.468,1.68 -1.977,2.449 -1.572,0.076 0.145,-0.846 0.296,-1.373 0.401,-1.701 0.469,-1.609 1.202,-2.951 2.139,-3.634 l 0,0 z m -47.459,0 c 0.936,0.682 1.672,2.025 2.138,3.636 0.106,0.327 0.259,0.854 0.401,1.7 0.404,2.375 -1.104,1.604 -1.572,-0.076 -0.146,-0.533 -0.123,-0.793 -0.029,-1.149 -0.417,-1.54 -1.052,-2.643 -1.662,-3.087 -0.733,-0.537 -0.008,-1.557 0.724,-1.024 l 0,0 z m 9.232,2.518 -1.728,-0.489 c -0.839,-0.239 -0.476,-1.485 0.362,-1.246 l 1.181,0.336 c 0.051,-0.072 0.104,-0.141 0.161,-0.209 l -0.527,-0.231 c -0.798,-0.352 -0.265,-1.536 0.535,-1.184 l 1.051,0.462 c 1.107,-0.728 2.582,-1.095 4.15,-0.986 2.435,0.168 4.582,1.451 5.27,3.282 0.318,0.854 -0.969,1.328 -1.291,0.475 -0.353,-0.938 -1.418,-1.821 -2.909,-2.21 0.499,0.378 0.802,0.987 0.753,1.649 -0.072,1.057 -1,1.849 -2.066,1.779 -1.063,-0.079 -1.867,-0.99 -1.795,-2.045 0.052,-0.696 0.469,-1.277 1.053,-1.575 -1.645,0.116 -2.895,0.877 -3.407,1.819 -0.144,0.295 -0.423,0.48 -0.793,0.373 l 0,0 z m 10.204,-3.545 c -1.951,-1.295 -6.986,-3.298 -11.465,-1.995 -1.405,0.41 -1.857,-0.365 -0.584,-1.076 1.508,-0.846 3.06,-1.279 4.988,-1.354 2.904,-0.114 5.669,0.77 8.043,2.346 1.371,0.913 0.393,2.992 -0.982,2.079 l 0,0 z m 0.467,13.191 c 0,0 0.073,-0.078 0.208,-0.176 1.409,-1.02 2.248,0.646 3.633,0.646 1.393,0 2.25,-1.658 3.652,-0.646 0.134,0.098 0.204,0.176 0.204,0.176 0.591,0.639 -0.374,1.516 -0.967,0.879 -0.353,-0.256 -1.091,0.441 -1.442,0.602 -0.383,0.172 -0.846,0.285 -1.447,0.285 -1.006,0 -1.512,-0.256 -2.252,-0.807 -0.202,-0.15 -0.411,-0.23 -0.619,-0.08 -0.592,0.636 -1.557,-0.241 -0.97,-0.879 l 0,0 z m 8.122,-13.191 c -1.379,0.914 -2.355,-1.166 -0.982,-2.08 2.377,-1.576 5.139,-2.46 8.043,-2.346 1.93,0.075 3.482,0.507 4.988,1.354 1.271,0.712 0.824,1.486 -0.584,1.076 -4.48,-1.303 -9.516,0.701 -11.465,1.996 l 0,0 z m 10.385,2.145 1.18,-0.336 c 0.843,-0.239 1.205,1.008 0.363,1.246 l -1.728,0.49 c -0.369,0.106 -0.647,-0.078 -0.769,-0.336 -0.537,-0.979 -1.785,-1.741 -3.431,-1.857 0.585,0.298 1.001,0.877 1.053,1.574 0.074,1.057 -0.729,1.967 -1.798,2.046 -1.064,0.069 -1.988,-0.723 -2.062,-1.778 -0.05,-0.664 0.256,-1.273 0.751,-1.65 -1.491,0.389 -2.554,1.271 -2.907,2.209 -0.319,0.854 -1.609,0.379 -1.291,-0.475 0.688,-1.83 2.834,-3.112 5.27,-3.281 1.57,-0.11 3.045,0.258 4.146,0.987 l 1.053,-0.463 c 0.801,-0.352 1.331,0.833 0.533,1.184 l -0.523,0.23 c 0.055,0.068 0.11,0.138 0.16,0.21 l 0,0 z m -19.9,17.374 c 0.486,0.479 0.989,0.98 1.521,1.434 0.84,0.57 1.941,0.975 3.737,0.98 1.787,-0.006 2.882,-0.412 3.72,-0.982 0.534,-0.451 1.036,-0.953 1.523,-1.432 -1.953,0.158 -4.166,0.195 -5.19,0.199 h -0.116 c -1.027,-0.004 -3.242,-0.041 -5.195,-0.199 l 0,0 z m 9.638,2.566 c -1.218,1.008 -2.565,1.779 -4.315,1.814 h -0.145 c -2.006,-0.037 -3.487,-1.051 -4.85,-2.275 -0.547,-0.434 -1.109,-0.963 -1.752,-1.598 -0.416,-0.408 -0.911,-0.709 -1.461,-0.91 -0.139,-0.039 -0.26,-0.082 -0.36,-0.123 -0.78,-0.318 -0.321,-1.506 0.489,-1.205 l 0.049,0.014 0.129,0.045 c 2.059,0.615 5.315,-0.742 7.824,0.428 2.512,-1.172 5.777,0.188 7.838,-0.428 l 0.129,-0.045 0.047,-0.014 c 0.811,-0.301 1.27,0.887 0.489,1.205 -0.103,0.041 -0.224,0.084 -0.354,0.121 -1.643,0.604 -2.299,1.977 -3.757,2.971 l 0,0 z m -5.154,1.178 c 0.508,0.074 0.621,-0.68 0.111,-0.752 -0.337,-0.053 -0.568,-0.061 -0.898,-0.186 -0.478,-0.184 -0.757,0.531 -0.275,0.711 0.413,0.158 0.648,0.172 1.062,0.227 l 0,0 z"
   id="path5"
   inkscape:connector-curvature="0" />
</g>
<path
   sodipodi:type="arc"
   style="color:#000000;fill:none;stroke:#000000;stroke-width:5;stroke-linecap:round;stroke-linejoin:round;stroke-miterlimit:4;stroke-opacity:1;stroke-dasharray:none;stroke-dashoffset:0;marker:none;visibility:visible;display:inline;overflow:visible;enable-background:accumulate"
   id="path3782"
   sodipodi:cx="58.426197"
   sodipodi:cy="58.951851"
   sodipodi:rx="60.82317"
   sodipodi:ry="60.82317"
   d="m 119.24937,58.951851 a 60.82317,60.82317 0 1 1 -121.6463427,0 60.82317,60.82317 0 1 1 121.6463427,0 z"
   transform="translate(4.8969727,4.3713188)" /></svg>