<?xml version="1.0" encoding="UTF-8" standalone="no"?>
<svg
   xmlns:dc="http://purl.org/dc/elements/1.1/"
   xmlns:cc="http://creativecommons.org/ns#"
   xmlns:rdf="http://www.w3.org/1999/02/22-rdf-syntax-ns#"
   xmlns:svg="http://www.w3.org/2000/svg"
   xmlns="http://www.w3.org/2000/svg"
   xmlns:sodipodi="http://sodipodi.sourceforge.net/DTD/sodipodi-0.dtd"
   xmlns:inkscape="http://www.inkscape.org/namespaces/inkscape"
   version="1.1"
   id="Layer_1"
   x="0px"
   y="0px"
   width="126.64634"
   height="126.64634"
   viewBox="0 0 126.64634 126.64634"
   xml:space="preserve"
   inkscape:version="0.48.5 r10040"
   sodipodi:docname="Derek.svg"><metadata
   id="metadata35"><rdf:RDF><cc:Work
       rdf:about=""><dc:format>image/svg+xml</dc:format><dc:type
         rdf:resource="http://purl.org/dc/dcmitype/StillImage" /><dc:title /></cc:Work></rdf:RDF></metadata><defs
   id="defs33" /><sodipodi:namedview
   pagecolor="#ffffff"
   bordercolor="#666666"
   borderopacity="1"
   objecttolerance="10"
   gridtolerance="10"
   guidetolerance="10"
   inkscape:pageopacity="0"
   inkscape:pageshadow="2"
   inkscape:window-width="1366"
   inkscape:window-height="706"
   id="namedview31"
   showgrid="false"
   inkscape:zoom="3.337544"
   inkscape:cx="-46.000368"
   inkscape:cy="28.818422"
   inkscape:window-x="-8"
   inkscape:window-y="-8"
   inkscape:window-maximized="1"
   inkscape:current-layer="Layer_1"
   fit-margin-top="0"
   fit-margin-left="0"
   fit-margin-right="0"
   fit-margin-bottom="0" />
<g
   id="g3"
   transform="translate(13.628464,13.208689)">
	<path
   d="m 18.039,51.311 c -1.047,0.258 -0.657,1.829 0.391,1.57 0.725,-0.177 2.062,0.67 3.102,2.584 -0.259,0.324 -0.338,0.876 -0.16,1.502 0.277,0.965 1.068,1.767 1.761,1.712 1.521,-0.118 0.548,-2.375 0.458,-2.588 -1.123,-2.846 -3.316,-5.335 -5.552,-4.78 z"
   id="path5"
   inkscape:connector-curvature="0" />
	<path
   d="m 37.657,68.538 c 0.818,0.229 1.161,-0.997 0.343,-1.227 -1.748,-0.488 -3.506,1.269 -3.682,2.903 -0.092,0.846 1.173,0.98 1.264,0.142 0.098,-0.87 1.129,-2.083 2.075,-1.818 z"
   id="path7"
   inkscape:connector-curvature="0" />
	<path
   d="m 63.976,44.936 c -5.704,0.415 -7.813,1.208 -8.599,2.093 -0.361,0.415 -0.485,1.065 -0.496,1.76 0.449,0.312 1.065,0.38 1.669,-0.049 2.287,-1.628 5.132,-2.607 8.345,-2.607 2.146,0 4.163,0.435 5.946,1.206 0.204,0.088 0.401,0.132 0.587,0.139 -1.178,-2.63 -3.928,-2.799 -7.452,-2.542 z"
   id="path9"
   inkscape:connector-curvature="0" />
	<path
   d="m 82.165,46.864 c -1.139,-0.368 -2.308,-0.239 -3.411,0.229 4.178,-12.271 4.555,-24.909 1.423,-31.3 C 75.141,3.861 62.359,0.557 49.687,0.569 h -0.13 C 36.887,0.556 24.103,3.861 19.07,15.794 c -3.127,6.381 -2.758,18.981 1.4,31.235 -1.055,-0.417 -2.167,-0.516 -3.244,-0.165 -2.632,0.863 -3.164,4.061 -2.656,7.003 0.254,1.475 0.778,3.019 1.546,4.483 1.045,1.991 2.001,3.568 2.935,4.74 1.682,2.105 3.404,3.01 5.493,2.544 0.166,1.214 0.371,2.36 0.609,3.445 0.539,2.435 1.252,4.563 2.105,6.426 h 0.006 c 0.306,0.673 0.629,1.305 0.971,1.912 1.037,1.832 2.212,3.356 3.485,4.619 0.661,3.383 1.802,7.58 3.509,12.767 l 0.032,0.091 c 0,0 0.051,0.106 0.17,0.287 2.563,3.867 10.548,4.479 14.268,4.479 3.715,0 11.693,-0.612 14.262,-4.479 0.124,-0.181 0.168,-0.287 0.168,-0.287 l 0.033,-0.091 c 1.707,-5.187 2.847,-9.384 3.512,-12.767 1.27,-1.263 2.451,-2.787 3.482,-4.619 0.342,-0.607 0.666,-1.242 0.971,-1.912 h 0.003 c 0.854,-1.861 1.564,-3.99 2.098,-6.426 0.242,-1.085 0.448,-2.231 0.616,-3.445 2.091,0.466 3.814,-0.438 5.491,-2.544 0.934,-1.172 1.894,-2.748 2.938,-4.74 0.767,-1.465 1.289,-3.009 1.545,-4.483 0.512,-2.94 -0.026,-6.138 -2.653,-7.003 z M 62.614,94.292 C 60.441,97.559 52.596,98.044 49.691,98.046 46.789,98.044 38.941,97.558 36.773,94.292 35.434,90.221 34.429,86.736 33.745,83.801 l 0.116,0.084 c 1.975,1.465 4.064,2.434 6.098,3.077 1.45,0.463 2.866,0.76 4.211,0.958 0.915,1.325 2.623,2.2 5.491,2.309 h 0.079 c 2.858,-0.108 4.561,-0.983 5.48,-2.309 1.339,-0.198 2.761,-0.494 4.209,-0.958 2.033,-0.644 4.126,-1.612 6.1,-3.077 l 0.112,-0.084 c -0.681,2.935 -1.693,6.422 -3.027,10.491 z M 83.226,53.601 c -0.222,1.291 -0.691,2.676 -1.381,3.998 -1.035,1.962 -1.931,3.432 -2.77,4.489 -1.566,1.96 -2.796,2.337 -4.263,1.863 -0.033,-0.009 -0.072,-0.02 -0.106,-0.024 -0.435,-0.359 -1.253,-0.225 -1.343,0.523 -0.177,1.528 -0.419,2.954 -0.713,4.288 -0.581,2.638 -1.372,4.874 -2.312,6.768 l -0.002,0.004 c -0.189,0.381 -0.384,0.753 -0.589,1.108 -1.482,2.63 -3.273,4.553 -5.185,5.97 -1.807,1.337 -3.733,2.234 -5.626,2.836 -1.016,0.323 -2.019,0.56 -2.983,0.735 0.147,-0.994 -1.357,-1.312 -1.59,-0.285 -0.304,1.326 -1.26,2.604 -4.672,2.738 -3.411,-0.134 -4.366,-1.412 -4.673,-2.738 -0.234,-1.026 -1.735,-0.709 -1.587,0.285 -0.968,-0.176 -1.97,-0.412 -2.984,-0.735 -1.896,-0.602 -3.821,-1.499 -5.624,-2.836 -1.912,-1.417 -3.704,-3.34 -5.189,-5.97 -0.202,-0.355 -0.4,-0.724 -0.582,-1.106 h 0.002 c -0.943,-1.9 -1.735,-4.138 -2.319,-6.772 -0.294,-1.337 -0.532,-2.758 -0.709,-4.291 -0.088,-0.747 -0.906,-0.883 -1.345,-0.523 -0.033,0.005 -0.067,0.017 -0.104,0.028 -1.469,0.47 -2.696,0.097 -4.261,-1.867 -0.844,-1.056 -1.744,-2.526 -2.771,-4.487 -0.693,-1.325 -1.159,-2.706 -1.383,-3.999 -0.503,-2.896 0.237,-4.767 1.557,-5.203 0.859,-0.28 1.854,-0.123 2.888,0.497 0.694,0.412 1.393,1.024 2.038,1.815 0.104,0.184 0.27,0.299 0.46,0.348 0.062,0.016 0.123,0.025 0.188,0.03 0.135,0.004 0.271,-0.021 0.392,-0.074 -0.075,-0.781 -0.206,-1.668 -0.8,-2.107 -0.629,-0.555 -1.106,-1.162 -1.106,-2.001 V 45.84 C 17.89,33.974 17.728,22.171 20.539,16.463 25.159,5.485 37.003,2.172 49.563,2.188 h 0.133 c 12.551,-0.017 24.389,3.297 29.011,14.274 2.78,5.643 2.648,17.249 -1.107,28.98 v 1.463 c 0,0.84 -0.482,1.446 -1.111,2.001 -0.418,0.308 -0.658,1.16 -0.823,2.101 0.125,0.058 0.268,0.085 0.404,0.081 0.219,0.002 0.445,-0.091 0.627,-0.316 0.659,-0.82 1.375,-1.453 2.086,-1.877 1.035,-0.619 2.023,-0.777 2.888,-0.496 1.313,0.431 2.061,2.307 1.555,5.202 z"
   id="path11"
   inkscape:connector-curvature="0" />
	<path
   d="m 23.711,41.23 c 0,0.197 -0.004,0.39 -0.012,0.583 0.492,-0.188 1.039,-0.346 1.629,-0.472 v -0.115 c -0.005,-1.225 -0.134,-2.732 -0.475,-4.687 -0.443,-2.522 -1.192,-4.996 -1.214,-7.581 -0.028,-2.763 0.824,-3.909 2.007,-4.407 1.4,-0.585 3.561,-0.406 6.392,0.214 0.275,0.07 0.551,0.147 0.825,0.23 2.217,0.647 4.268,1.491 6.092,2.486 2.723,1.485 4.889,3.287 6.306,5.235 0.635,0.863 1.716,0.349 1.438,-0.688 -0.351,-1.294 -0.837,-2.601 -1.474,-3.892 3.88,2.675 6.593,5.692 7.832,8.905 0.383,1 1.564,0.777 1.564,-0.292 -0.005,-3.229 -1.201,-7.139 -3.22,-10.784 4.096,2.551 7.064,5.651 8.49,8.841 0.438,0.978 1.604,0.697 1.545,-0.372 -0.148,-2.85 -1.164,-5.899 -2.892,-8.913 3.995,1.005 7.132,2.855 8.819,5.084 0.642,0.855 1.719,0.319 1.42,-0.709 -0.457,-1.604 -1.344,-3.19 -2.572,-4.697 1.864,-0.466 3.522,-0.804 4.934,-0.872 1.591,-0.081 2.701,0.184 3.408,0.812 0.744,0.666 1.269,1.93 1.154,4.35 -0.151,3.237 -1.236,6.359 -1.556,9.592 -0.088,0.845 -0.121,1.589 -0.118,2.256 0.585,0.125 1.132,0.279 1.628,0.462 -0.025,-0.719 0,-1.557 0.101,-2.562 0.329,-3.261 1.411,-6.4 1.566,-9.674 0.12,-2.617 -0.408,-4.491 -1.705,-5.64 -1.177,-1.046 -2.811,-1.304 -4.558,-1.216 -1.786,0.092 -3.866,0.556 -6.068,1.129 -1.036,-1.052 -2.236,-2.046 -3.565,-2.954 -0.894,-0.604 -1.807,0.733 -0.916,1.338 1.952,1.335 3.551,2.821 4.727,4.356 -2.166,-1.38 -4.886,-2.405 -7.896,-2.976 -1.306,-1.922 -2.884,-3.81 -4.713,-5.593 -0.773,-0.756 -1.907,0.401 -1.134,1.155 3.662,3.585 6.225,7.492 7.473,11.168 -2.291,-2.808 -5.592,-5.333 -9.559,-7.334 -0.921,-0.469 -1.621,0.336 -1.025,1.185 1.886,2.696 3.273,5.676 4.013,8.425 -2.141,-2.851 -5.297,-5.41 -9.147,-7.616 -0.912,-0.523 -1.666,0.299 -1.07,1.157 0.599,0.865 1.113,1.739 1.551,2.621 -1.174,-0.991 -2.527,-1.9 -4.016,-2.712 -1.923,-1.048 -4.079,-1.933 -6.415,-2.616 -0.293,-0.086 -0.603,-0.172 -0.9,-0.252 -2.796,-0.612 -5.445,-0.936 -7.382,-0.127 -2.029,0.847 -3.029,2.794 -3.001,5.917 0.026,2.68 0.783,5.229 1.24,7.843 0.318,1.832 0.445,3.254 0.449,4.409 z"
   id="path13"
   inkscape:connector-curvature="0" />
	<path
   d="m 81.348,51.311 c -2.24,-0.555 -4.428,1.935 -5.552,4.78 -0.091,0.213 -1.056,2.471 0.459,2.588 0.692,0.055 1.48,-0.745 1.76,-1.712 0.179,-0.628 0.102,-1.178 -0.164,-1.502 1.046,-1.914 2.383,-2.761 3.108,-2.584 1.048,0.259 1.434,-1.313 0.389,-1.57 z"
   id="path15"
   inkscape:connector-curvature="0" />
	<path
   d="m 60.715,69.831 c -1.508,1.149 -4.555,1.834 -11.165,1.834 -6.605,0 -9.646,-0.685 -11.15,-1.834 -0.827,-0.638 -1.775,0.604 -0.951,1.236 0.364,0.282 0.779,0.529 1.261,0.749 0.109,0.072 0.244,0.139 0.404,0.209 0.493,0.199 0.838,0.731 1.326,1.165 0.528,0.47 1.067,0.874 1.613,1.224 0.569,0.378 1.181,0.752 1.842,1.096 h -0.003 c 1.597,0.83 3.468,1.476 5.665,1.48 2.202,-0.005 4.075,-0.65 5.67,-1.48 l 0.002,-0.004 c 0.66,-0.341 1.271,-0.715 1.84,-1.093 0.547,-0.349 1.085,-0.754 1.614,-1.224 0.485,-0.432 0.825,-0.967 1.321,-1.166 0.177,-0.07 0.319,-0.144 0.431,-0.219 0.47,-0.217 0.873,-0.462 1.229,-0.736 0.826,-0.632 -0.122,-1.875 -0.949,-1.237 z m -4.754,3.443 c -0.162,0.101 -0.334,0.192 -0.518,0.285 l -0.259,0.125 c -1.27,0.586 -3.032,1.033 -5.628,1.033 -2.591,0 -4.355,-0.447 -5.626,-1.033 L 43.671,73.559 C 43.489,73.466 43.315,73.374 43.155,73.274 42.92,73.135 42.7,72.991 42.489,72.832 c 1.852,0.271 4.164,0.398 7.056,0.398 2.908,0 5.225,-0.127 7.083,-0.401 -0.209,0.159 -0.43,0.306 -0.667,0.445 z"
   id="path17"
   inkscape:connector-curvature="0" />
	<path
   d="m 75.886,48.167 c 0.559,-0.487 0.76,-0.832 0.76,-1.261 v -3.091 c 0,-0.291 -0.152,-0.541 -0.375,-0.688 -1.065,-0.623 -4.759,-1.516 -10.368,-1.306 -6.543,0.243 -10.774,2.146 -12.274,2.675 -1.441,0.504 -3.767,0.499 -3.941,0.496 -0.18,0.003 -2.504,0.008 -3.943,-0.496 -1.5,-0.529 -5.731,-2.433 -12.276,-2.675 -5.614,-0.21 -9.302,0.683 -10.367,1.306 -0.228,0.146 -0.372,0.397 -0.372,0.688 v 3.091 c 0,0.429 0.202,0.773 0.754,1.261 1,0.738 1.012,1.758 1.214,3.397 0.314,2.576 0.565,8.225 9.057,9.056 7.987,0.78 11.383,-3.545 12.62,-6.768 1.217,-3.174 1.186,-4.737 3.314,-4.739 2.122,0.004 2.099,1.564 3.311,4.739 1.237,3.225 4.633,7.55 12.625,6.768 8.489,-0.831 8.737,-6.479 9.053,-9.056 0.196,-1.639 0.209,-2.658 1.208,-3.397 z m -30.671,3.296 c -0.368,4.259 -3.951,8.162 -10.008,8.162 -4.863,0 -8.792,-2.752 -8.834,-8.365 -0.049,-7.171 4.239,-7.622 9.09,-7.271 11.255,0.815 10.134,3.122 9.752,7.474 z m 18.948,8.16 c -6.057,0 -9.634,-3.902 -10.011,-8.163 -0.38,-4.35 -1.497,-6.658 9.754,-7.474 4.851,-0.35 9.138,0.103 9.089,7.273 -0.042,5.614 -3.97,8.371 -8.832,8.364 z"
   id="path19"
   inkscape:connector-curvature="0" />
	<path
   d="m 35.394,44.936 c -3.522,-0.257 -6.273,-0.088 -7.448,2.541 0.188,-0.007 0.39,-0.049 0.595,-0.139 1.784,-0.771 3.803,-1.206 5.947,-1.206 3.211,0 6.055,0.979 8.346,2.607 0.594,0.418 1.201,0.362 1.656,0.058 L 44.486,48.594 C 44.472,47.878 44.325,47.411 43.99,47.029 43.208,46.141 41.098,45.348 35.394,44.936 z"
   id="path21"
   inkscape:connector-curvature="0" />
	<path
   d="m 63.21,48.387 c -3.01,0 -5.765,1.41 -6.77,3.626 -0.466,1.034 1.082,1.731 1.548,0.699 0.513,-1.134 1.902,-2.145 3.766,-2.497 -0.638,0.432 -1.067,1.161 -1.067,1.991 0,1.316 1.069,2.382 2.389,2.382 1.313,0 2.383,-1.065 2.383,-2.382 0,-0.869 -0.463,-1.632 -1.16,-2.046 2.018,0.282 3.49,1.337 4.035,2.552 0.467,1.032 2.015,0.335 1.549,-0.699 -1.004,-2.206 -3.653,-3.626 -6.673,-3.626 z"
   id="path23"
   inkscape:connector-curvature="0" />
	<path
   d="m 56.369,65.032 c 1.134,-0.028 1.094,-1.723 -0.041,-1.698 -3.088,0.08 -3.841,2.464 -6.673,2.464 -3.048,0 -3.774,-1.961 -6.452,-2.451 -1.109,-0.203 -1.417,1.468 -0.307,1.671 1.022,0.187 1.697,0.634 2.395,1.096 -0.046,0.294 0.069,0.612 0.435,0.778 1.185,0.551 2.458,0.715 3.968,0.727 1.335,-0.012 2.607,-0.176 3.793,-0.727 0.422,-0.194 0.512,-0.591 0.393,-0.92 l 0.376,-0.261 c 0.649,-0.431 1.316,-0.657 2.113,-0.679 z"
   id="path25"
   inkscape:connector-curvature="0" />
	<path
   d="m 36.17,48.387 c -3.024,0 -5.672,1.42 -6.673,3.626 -0.467,1.034 1.081,1.731 1.551,0.699 0.544,-1.215 2.019,-2.27 4.033,-2.552 -0.694,0.414 -1.16,1.177 -1.16,2.046 0,1.316 1.068,2.382 2.385,2.382 1.317,0 2.383,-1.065 2.383,-2.382 0,-0.83 -0.422,-1.56 -1.061,-1.991 1.863,0.353 3.248,1.363 3.764,2.497 0.466,1.032 2.013,0.335 1.546,-0.699 -1.002,-2.216 -3.757,-3.626 -6.768,-3.626 z"
   id="path27"
   inkscape:connector-curvature="0" />
	<path
   d="m 61.12,67.312 c -0.818,0.229 -0.475,1.456 0.341,1.227 0.949,-0.265 1.98,0.948 2.075,1.818 0.092,0.839 1.358,0.704 1.267,-0.142 -0.18,-1.632 -1.935,-3.391 -3.683,-2.903 z"
   id="path29"
   inkscape:connector-curvature="0" />
</g>
<path
   sodipodi:type="arc"
   style="color:#000000;fill:none;stroke:#000000;stroke-width:5;stroke-linecap:round;stroke-linejoin:round;stroke-miterlimit:4;stroke-opacity:1;stroke-dasharray:none;stroke-dashoffset:0;marker:none;visibility:visible;display:inline;overflow:visible;enable-background:accumulate"
   id="path3782"
   sodipodi:cx="58.426197"
   sodipodi:cy="58.951851"
   sodipodi:rx="60.82317"
   sodipodi:ry="60.82317"
   d="m 119.24937,58.951851 a 60.82317,60.82317 0 1 1 -121.6463427,0 60.82317,60.82317 0 1 1 121.6463427,0 z"
   transform="translate(4.8969727,4.3713188)" /></svg>