<?xml version="1.0" encoding="UTF-8" standalone="no"?>
<svg
   xmlns:dc="http://purl.org/dc/elements/1.1/"
   xmlns:cc="http://creativecommons.org/ns#"
   xmlns:rdf="http://www.w3.org/1999/02/22-rdf-syntax-ns#"
   xmlns:svg="http://www.w3.org/2000/svg"
   xmlns="http://www.w3.org/2000/svg"
   xmlns:sodipodi="http://sodipodi.sourceforge.net/DTD/sodipodi-0.dtd"
   xmlns:inkscape="http://www.inkscape.org/namespaces/inkscape"
   version="1.1"
   id="Layer_1"
   x="0px"
   y="0px"
   width="126.64634"
   height="126.64634"
   viewBox="0 0 126.64634 126.64634"
   enable-background="new 0 0 100 100"
   xml:space="preserve"
   inkscape:version="0.48.5 r10040"
   sodipodi:docname="Patty.svg"><metadata
   id="metadata9"><rdf:RDF><cc:Work
       rdf:about=""><dc:format>image/svg+xml</dc:format><dc:type
         rdf:resource="http://purl.org/dc/dcmitype/StillImage" /><dc:title /></cc:Work></rdf:RDF></metadata><defs
   id="defs7" /><sodipodi:namedview
   pagecolor="#ffffff"
   bordercolor="#666666"
   borderopacity="1"
   objecttolerance="10"
   gridtolerance="10"
   guidetolerance="10"
   inkscape:pageopacity="0"
   inkscape:pageshadow="2"
   inkscape:window-width="1366"
   inkscape:window-height="706"
   id="namedview5"
   showgrid="false"
   inkscape:zoom="2.36"
   inkscape:cx="64.170627"
   inkscape:cy="65.441813"
   inkscape:window-x="-8"
   inkscape:window-y="-8"
   inkscape:window-maximized="1"
   inkscape:current-layer="Layer_1"
   fit-margin-top="0"
   fit-margin-left="0"
   fit-margin-right="0"
   fit-margin-bottom="0" />
<path
   d="m 98.546627,65.308526 c -0.169,-0.086 -0.334,-0.168 -0.506,-0.236 2.389003,-6.115 3.045003,-12.705 2.014003,-19.058 -0.553003,-3.434 -1.520003,-6.479 -2.967003,-9.635 -0.017,-0.037 -0.037,-0.075 -0.062,-0.112 -2.801,-5.875 -7.004,-10.684 -12.021,-14.198 l 0.081,0.57 c 1.697,12.514 0.221,20.133 -4.223,25.078 3.021,-0.271 4.597,1.649 4.981,4.101 0.599,3.794 1.372,6.271 2.06,8.277 1.225,-0.234 2.352,-0.363 3.312,-0.367 1.833,-0.105 2.247,0.908 1.837,2.338 -1.203,3.25 -2.482,6.037 -3.635,8.256 -0.051,0.385 -0.107,0.796 -0.174,1.221 -0.182,1.129 1.221,1.48 1.604,0.412 0.943,-2.622 3.562,-6.896 6.879,-5.2 1.818,1.159 1.159,4.558 0.689,6.167 -1.409,4.815 -4.568,8.446 -9.561,9.524 l -0.593,0.116 c -0.271,0.064 -0.571,0.266 -0.653,0.65 l -0.088,0.487 -0.062,0.299 c -0.72,3.603 -1.985,7.097 -3.968,10.207 -3.766,5.920004 -11.495,11.358004 -18.694,11.358004 -2.039,0 -6.191,-0.787 -10.44,-3.334 -6.821,-4.076004 -10.755,-10.696004 -12.252,-18.396004 l -0.112,-0.613 c -0.108,-0.473 -0.444,-0.64 -0.725,-0.679 -2.634,-0.329 -5.529,-2.092 -7.199,-4.022 -1.724,-1.99 -4.764,-8.629 -2.804,-11.203 2.348,4.979 5.852,9.492 10.465,13.098 0.846,0.65 1.7,0.062 1.36,-0.955 -0.657,-2.016 -1.257,-4.357 -1.625,-6.792 -1.405,-2.446 -3.238,-6.076 -4.917,-10.601 -0.409,-1.43 0.007,-2.443 1.84,-2.338 1.134,0.004 2.495,0.187 3.994,0.502 1.549,-3.519 4.603,-6.034 9.99,-6.298 2.14,-0.098 5.494,0.01 9.238,-0.277 4.915,-0.384 9.088,-1.405 12.532,-3.092 7.938,-4.003 11.485,-11.006 9.221,-27.684 l -0.285,-2.07 c -12.76,-7.815 -29.953,-7.712 -42.845,3.489 -12.51,10.88 -15.373,27.647 -9.696,41.386 -3.03,2.565 -0.859,8.703 0.563,11.405 1.856,3.535 5.247,6.048 9.133,6.948 l 0.23,0.049 c 1.086,5.582 3.39,10.788 7.298,14.96 4.115,4.379004 10.996,8.187004 17.038,8.187004 1.693,0 4.428,-0.452 7.488,-1.676 9.284,-3.733 14.891,-11.613004 16.809,-21.234004 0.015,-0.084 0.023,-0.16 0.03,-0.237 l 0.062,-0.01 c 3.933,-0.851 7.424,-3.38 9.318,-6.989 1.580003,-3.012 3.769003,-9.479 0.041,-11.779 z m -43.655,24.794 -0.159,-0.054 -0.061,-0.02 c -1.036,-0.388 -1.612,1.141 -0.621,1.547 0.129,0.054 0.284,0.104 0.455,0.155 0.701,0.256 1.331,0.643 1.856,1.17 0.815,0.809 1.527,1.488 2.228,2.043 1.724,1.576 3.596,2.869 6.142,2.924 h 0.187 c 2.213,-0.047 3.928,-1.036 5.478,-2.323 1.848,-1.278 2.676,-3.036 4.754,-3.815 0.174,-0.047 0.324,-0.103 0.451,-0.152 0.988,-0.406 0.405,-1.934 -0.623,-1.547 l -0.058,0.02 -0.163,0.054 c -2.614,0.795 -6.761,-0.948 -9.938,0.545 -3.183,-1.494 -7.31,0.244 -9.928,-0.547 z m 8.964,6.948 c -0.528,-0.078 -0.826,-0.092 -1.348,-0.291 -0.609,-0.228 -0.263,-1.147 0.354,-0.912 0.408,0.162 0.708,0.176 1.134,0.24 0.639,0.09 0.51,1.053 -0.14,0.963 z m 0.902,-4.541 h 0.149 c 1.298,-0.005 4.1,-0.062 6.576,-0.255 -0.617,0.607 -1.252,1.249 -1.93,1.832 -1.055,0.726 -2.455,1.246 -4.717,1.257 -2.278,-0.007 -3.674,-0.523 -4.738,-1.257 -0.673,-0.583 -1.321,-1.225 -1.939,-1.832 2.48,0.193 5.291,0.25 6.599,0.255 z m -11.454,-24.98 c -1.988,-0.142 -3.861,0.335 -5.26,1.264 l -1.331,-0.594 c -1.015,-0.446 -1.693,1.071 -0.676,1.519 l 0.663,0.295 c -0.072,0.09 -0.138,0.176 -0.199,0.269 l -1.497,-0.429 c -1.069,-0.301 -1.527,1.291 -0.464,1.6 l 2.195,0.629 c 0.462,0.137 0.815,-0.102 0.997,-0.477 0.655,-1.209 2.234,-2.184 4.327,-2.334 -0.749,0.383 -1.273,1.125 -1.334,2.02 -0.1,1.348 0.917,2.525 2.272,2.618 1.358,0.09 2.522,-0.927 2.622,-2.283 0.056,-0.848 -0.325,-1.629 -0.952,-2.11 1.893,0.492 3.236,1.627 3.688,2.832 0.398,1.09 2.04,0.487 1.632,-0.611 -0.87,-2.345 -3.595,-3.99 -6.683,-4.208 z m 7.846,17.691 c 0.258,-0.191 0.522,-0.086 0.783,0.104 0.938,0.705 1.583,1.038 2.852,1.038 0.765,0 1.354,-0.145 1.835,-0.37 0.453,-0.198 1.378,-1.099 1.835,-0.772 0.745,0.82 1.976,-0.304 1.22,-1.119 0,0 -0.078,-0.104 -0.25,-0.227 -1.781,-1.299 -2.873,0.83 -4.64,0.83 -1.754,0 -2.814,-2.139 -4.606,-0.83 -0.169,0.121 -0.26,0.227 -0.26,0.227 -0.746,0.815 0.477,1.939 1.231,1.119 z m 23.462,-15.37 -1.504,0.43 c -0.062,-0.094 -0.127,-0.178 -0.196,-0.27 l 0.663,-0.293 c 1.013,-0.447 0.342,-1.966 -0.67,-1.52 l -1.342,0.594 c -1.396,-0.929 -3.272,-1.404 -5.26,-1.264 -3.092,0.218 -5.814,1.863 -6.686,4.203 -0.406,1.101 1.238,1.701 1.641,0.611 0.447,-1.203 1.793,-2.339 3.684,-2.83 -0.631,0.48 -1.016,1.262 -0.955,2.109 0.095,1.357 1.273,2.373 2.621,2.283 1.357,-0.094 2.371,-1.271 2.279,-2.618 -0.059,-0.896 -0.598,-1.638 -1.338,-2.019 2.09,0.149 3.674,1.123 4.352,2.373 0.156,0.336 0.509,0.571 0.976,0.437 l 2.187,-0.629 c 1.075,-0.304 0.608,-1.895 -0.452,-1.597 z m -15.914,-4.986 c -0.538,0.361 -0.786,0.865 -0.834,1.355 3.347,-0.976 8.138,-2.75 12.748,-4.203 -0.545,-0.082 -1.114,-0.133 -1.721,-0.153 -3.684,-0.148 -7.182,0.989 -10.193,3.001 z m 27.334,5.183 c 1.01,-0.56 0.254,-1.973 -0.75,-1.407 -1.282,0.723 -2.42,2.316 -3.262,4.299 -0.184,0.391 -0.459,1.043 -0.766,2.09 -0.885,2.967 1.131,2.222 1.984,0.154 0.271,-0.651 0.285,-0.99 0.225,-1.459 0.761,-1.898 1.733,-3.2 2.569,-3.677 z m -35.118,-5.183 c -3.016,-2.012 -6.513,-3.149 -10.197,-3.001 -0.603,0.021 -1.182,0.071 -1.727,0.153 4.61,1.453 9.401,3.229 12.753,4.205 -0.041,-0.492 -0.298,-0.996 -0.829,-1.357 z m 24.407,10.444 c 0.927,-1.27 4.068,-6.16 6.81,-13.556 0.134,-0.479 0.406,-1.132 -0.879,-1.045 -1.338,-0.008 -4.09,0.426 -8.754,1.831 -6.798,2.062 -13.021,4.253 -14.972,4.784 -1.101,0.274 -1.705,0.392 -2.729,0.444 -1.022,-0.054 -1.623,-0.17 -2.73,-0.444 -1.939,-0.531 -8.174,-2.724 -14.964,-4.784 -4.661,-1.405 -7.414,-1.839 -8.744,-1.831 -1.295,-0.087 -1.021,0.566 -0.881,1.045 2.732,7.396 5.878,12.286 6.803,13.556 1.256,1.725 3.257,3.104 6.276,3.117 7.047,0.036 9.139,-1.306 10.562,-3.832 1.44,-2.574 1.135,-4.449 3.678,-4.449 2.546,0 2.251,1.875 3.691,4.449 1.406,2.526 3.511,3.868 10.552,3.832 3.022,-0.015 5.013,-1.394 6.281,-3.117 z m -26.834,0 c -1.079,0.817 -2.834,1.369 -5.115,1.527 -6.08,0.432 -7.657,-1.669 -8.951,-3.775 -1.287,-2.104 -2.339,-4.69 -1.721,-6.601 0.624,-1.909 4.969,-1.491 10.237,-0.188 6.602,1.623 7.556,2.488 7.603,4.347 0.031,1.19 -0.165,3.27 -2.053,4.69 z m 17.75,1.527 c -2.297,-0.158 -4.041,-0.71 -5.121,-1.527 -1.897,-1.42 -2.094,-3.5 -2.061,-4.69 0.053,-1.856 1.006,-2.724 7.605,-4.347 5.277,-1.303 9.611,-1.721 10.236,0.188 0.625,1.909 -0.429,4.497 -1.722,6.601 -1.287,2.106 -2.872,4.206 -8.937,3.775 z"
   id="path3"
   inkscape:connector-curvature="0" />
<path
   sodipodi:type="arc"
   style="color:#000000;fill:none;stroke:#000000;stroke-width:5;stroke-linecap:round;stroke-linejoin:round;stroke-miterlimit:4;stroke-opacity:1;stroke-dasharray:none;stroke-dashoffset:0;marker:none;visibility:visible;display:inline;overflow:visible;enable-background:accumulate"
   id="path3782"
   sodipodi:cx="58.426197"
   sodipodi:cy="58.951851"
   sodipodi:rx="60.82317"
   sodipodi:ry="60.82317"
   d="m 119.24937,58.951851 a 60.82317,60.82317 0 1 1 -121.6463427,0 60.82317,60.82317 0 1 1 121.6463427,0 z"
   transform="translate(4.8969727,4.3713188)" /></svg>