<?xml version="1.0" encoding="UTF-8" standalone="no"?>
<svg
   xmlns:dc="http://purl.org/dc/elements/1.1/"
   xmlns:cc="http://creativecommons.org/ns#"
   xmlns:rdf="http://www.w3.org/1999/02/22-rdf-syntax-ns#"
   xmlns:svg="http://www.w3.org/2000/svg"
   xmlns="http://www.w3.org/2000/svg"
   xmlns:sodipodi="http://sodipodi.sourceforge.net/DTD/sodipodi-0.dtd"
   xmlns:inkscape="http://www.inkscape.org/namespaces/inkscape"
   version="1.1"
   id="Layer_1"
   x="0px"
   y="0px"
   width="126.64634"
   height="126.64634"
   viewBox="0 0 126.64634 126.64634"
   enable-background="new 0 0 100 100"
   xml:space="preserve"
   inkscape:version="0.48.5 r10040"
   sodipodi:docname="Suzie.svg"><metadata
   id="metadata33"><rdf:RDF><cc:Work
       rdf:about=""><dc:format>image/svg+xml</dc:format><dc:type
         rdf:resource="http://purl.org/dc/dcmitype/StillImage" /><dc:title /></cc:Work></rdf:RDF></metadata><defs
   id="defs31" /><sodipodi:namedview
   pagecolor="#ffffff"
   bordercolor="#666666"
   borderopacity="1"
   objecttolerance="10"
   gridtolerance="10"
   guidetolerance="10"
   inkscape:pageopacity="0"
   inkscape:pageshadow="2"
   inkscape:window-width="1366"
   inkscape:window-height="706"
   id="namedview29"
   showgrid="false"
   inkscape:zoom="2.36"
   inkscape:cx="12.687577"
   inkscape:cy="97.221475"
   inkscape:window-x="-8"
   inkscape:window-y="-8"
   inkscape:window-maximized="1"
   inkscape:current-layer="Layer_1"
   fit-margin-top="0"
   fit-margin-left="0"
   fit-margin-right="0"
   fit-margin-bottom="0" />
<g
   id="g3"
   transform="translate(12.063773,13.24031)">
	<path
   d="M 42.653,67.375 42.51,67.329 42.457,67.31 c -0.898,-0.336 -1.406,0.994 -0.541,1.354 0.113,0.048 0.248,0.092 0.398,0.135 0.607,0.225 1.158,0.561 1.619,1.021 0.715,0.705 1.336,1.301 1.941,1.789 0.402,0.365 0.814,0.717 1.244,1.029 h 0.002 c 1.182,0.869 2.502,1.487 4.133,1.518 h 0.157 c 1.633,-0.029 2.951,-0.649 4.133,-1.518 v -0.002 c 0.221,-0.16 0.438,-0.332 0.65,-0.51 1.617,-1.113 2.342,-2.65 4.16,-3.332 0.147,-0.041 0.28,-0.085 0.391,-0.131 0.867,-0.357 0.357,-1.688 -0.539,-1.354 l -0.053,0.019 -0.144,0.046 c -2.282,0.691 -5.899,-0.83 -8.684,0.479 -2.778,-1.307 -6.388,0.213 -8.671,-0.478 z m 7.831,6.072 c -0.461,-0.068 -0.721,-0.082 -1.178,-0.256 -0.268,-0.103 -0.324,-0.355 -0.248,-0.553 l -0.002,-0.003 c 0.083,-0.198 0.29,-0.345 0.557,-0.241 0.363,0.14 0.619,0.151 0.993,0.205 0.051,0.008 0.096,0.021 0.137,0.039 v 0.002 c 0.402,0.188 0.253,0.881 -0.259,0.807 z m 0.787,-3.97 H 51.4 c 1.133,-0.004 3.588,-0.049 5.752,-0.224 -0.541,0.532 -1.101,1.091 -1.689,1.601 -0.924,0.636 -2.141,1.095 -4.119,1.104 -1.994,-0.01 -3.215,-0.467 -4.139,-1.103 -0.594,-0.51 -1.152,-1.07 -1.693,-1.603 2.164,0.176 4.617,0.221 5.759,0.225 z"
   id="path5"
   inkscape:connector-curvature="0"
   style="fill:#000000" />
	<path
   d="m 48.133,63.146 c 0.23,-0.17 0.461,-0.08 0.688,0.09 0.818,0.613 1.379,0.902 2.494,0.902 0.666,0 1.181,-0.125 1.603,-0.318 0.39,-0.18 1.207,-0.961 1.603,-0.674 0.653,0.711 1.725,-0.27 1.067,-0.982 0,0 -0.075,-0.09 -0.228,-0.199 -1.553,-1.135 -2.504,0.725 -4.045,0.725 -1.535,0 -2.464,-1.869 -4.024,-0.725 -0.15,0.109 -0.229,0.199 -0.229,0.199 -0.656,0.714 0.417,1.693 1.071,0.982 z"
   id="path7"
   inkscape:connector-curvature="0"
   style="fill:#000000" />
	<path
   d="m 46.039,49.751 c 0.004,0.005 0.007,0.01 0.011,0.015 0.121,0.15 0.24,0.301 0.343,0.461 -0.106,-0.165 -0.226,-0.322 -0.354,-0.476 z"
   id="path9"
   inkscape:connector-curvature="0"
   style="fill:#000000" />
	<path
   d="m 79.764,45.354 c -1.684,-0.465 -3.078,0.068 -4.188,1.045 2.805,-11.125 4.885,-28.942 -5.455,-34.88 0.021,0.208 0.041,0.42 0.053,0.638 0.433,7.374 -1.541,13.629 -5.188,18.265 2.871,-0.444 4.365,1.24 4.73,3.533 0.387,2.428 0.871,4.196 1.361,5.609 0.797,2.302 1.51,3.614 1.908,5.069 0.424,0.146 0.807,0.314 1.143,0.508 0.404,0.268 0.695,0.739 0.695,1.267 v 2.618 c 0,0.71 -0.404,1.228 -0.938,1.697 -0.288,0.213 -0.479,0.734 -0.612,1.354 0.317,0.052 0.678,-0.103 0.819,-0.54 0.033,-0.102 0.063,-0.199 0.097,-0.291 0.11,-0.32 0.223,-0.592 0.303,-0.769 0.281,-0.639 0.629,-1.259 1.012,-1.809 1.941,-2.793 5.582,-2.928 5.516,1.06 -0.065,3.765 -2.646,8.329 -5.889,10.235 -0.41,0.241 -2.641,0.98 -2.787,1.391 -2.019,5.704 -3.658,9.067 -5.331,11.283 h -0.005 c -0.529,0.707 -1.061,1.295 -1.611,1.807 -2.535,2.358 -6.188,3.646 -9.221,5.233 -2.15,1.126 -1.936,1.22 -4.914,1.244 -1.316,-0.01 -2.77,0.031 -3.936,-0.68 -2.73,-1.661 -5.957,-2.72 -8.611,-4.546 -0.09,-0.114 -0.205,-0.19 -0.326,-0.229 -0.438,-0.318 -0.859,-0.658 -1.256,-1.027 -0.549,-0.512 -1.082,-1.1 -1.609,-1.803 -1.676,-2.22 -3.316,-5.582 -5.336,-11.289 -0.055,-0.149 -0.41,-0.447 -0.566,-0.474 -2.725,-0.488 -5.266,-3.253 -6.453,-5.513 -0.881,-1.682 -3.26,-7.716 -0.018,-8.611 2.496,-0.688 4.137,1.984 4.939,3.867 0.148,0.346 0.248,0.621 0.301,0.777 l 0.051,0.15 c 0.123,0.378 0.41,0.54 0.691,0.537 -0.076,-0.537 -0.229,-1.068 -0.629,-1.364 -0.531,-0.469 -0.938,-0.987 -0.938,-1.697 v -2.618 c 0,-0.479 0.24,-0.913 0.59,-1.188 -1.08,-2.333 -1.582,-5.026 -0.789,-7.528 0.293,-0.923 1.678,-0.483 1.385,0.44 -0.76,2.395 -0.018,4.843 0.701,6.424 l 0.029,0.052 c 0.475,-0.158 1,-0.287 1.562,-0.39 0.01,-0.135 0.023,-0.306 0.051,-0.505 0.617,-4.839 4.127,-7.686 9.371,-7.94 1.877,-0.09 4.701,-0.058 7.85,-0.314 5.288,-0.432 9.975,-1.629 13.592,-3.963 4.527,-4.364 7.316,-10.707 6.816,-19.253 C 68.693,11.725 68.631,11.242 68.541,10.781 66.325,5.47 59.077,3.855 53.9,3.495 52.32,3.384 51.273,3.416 51.273,3.416 41.441,3.725 34.637,7.035 30.387,10.843 c -7.713,7.208 -6.568,20.382 -5.24,28.96 0.33,2.154 0.908,4.321 1.564,6.461 -2.863,-2.135 -6.736,-1.171 -6.654,3.482 0.084,5.007 3.893,11.066 8.887,12.457 1.74,4.867 3.24,8.113 4.793,10.432 h 0.002 c 0.775,1.159 1.562,2.082 2.402,2.863 0.451,0.422 0.932,0.809 1.434,1.168 1.678,4.027 2.133,7.591 2.133,12.134 0,0 0.023,0.54 0.254,1.319 1.463,4.98 6.539,6.635 11.358,6.635 4.82,0 9.894,-1.654 11.355,-6.635 0.23,-0.779 0.254,-1.319 0.254,-1.319 0,-4.623 0.473,-8.233 2.23,-12.36 1.46,-1.126 2.635,-2.395 3.63,-3.801 h 0.005 c 2.068,-2.92 3.355,-6.428 4.785,-10.428 3.094,-0.861 5.605,-3.386 7.066,-6.17 1.39,-2.648 3.673,-9.431 -0.881,-10.687 z M 61.48,88.76 c -0.404,4.854 -6.041,6.547 -10.158,6.547 -4.117,0 -9.758,-1.692 -10.16,-6.547 -0.002,-3.971 -0.346,-7.279 -1.547,-10.805 1.975,1.102 4.105,1.982 6.062,3.008 2.363,1.236 2.389,1.387 5.589,1.412 1.645,-0.014 3.256,-0.018 4.688,-0.889 1.994,-1.213 4.159,-2.101 6.229,-3.164 0.301,-0.157 0.594,-0.316 0.879,-0.48 -1.23,3.568 -1.58,6.905 -1.582,10.918 z"
   id="path11"
   inkscape:connector-curvature="0"
   style="fill:#000000" />
	<path
   d="M 69.799,50.041 C 69.764,49.925 69.725,49.816 69.684,49.709 69.533,49.466 69.246,49.308 68.873,49.415 L 67.564,49.79 C 67.506,49.711 67.449,49.631 67.39,49.556 l 0.58,-0.259 c 0.885,-0.393 0.295,-1.72 -0.591,-1.327 l -1.166,0.52 c -0.924,-0.614 -2.08,-0.999 -3.338,-1.1 -1.313,0.104 -2.392,0.232 -3.271,0.382 -1.812,0.588 -3.267,1.771 -3.828,3.292 -0.354,0.955 1.076,1.483 1.43,0.529 0.389,-1.051 1.57,-2.041 3.221,-2.474 -0.549,0.423 -0.883,1.104 -0.832,1.85 0.084,1.181 1.107,2.07 2.289,1.988 1.18,-0.084 2.07,-1.106 1.988,-2.289 -0.055,-0.779 -0.52,-1.43 -1.168,-1.762 1.826,0.129 3.211,0.982 3.805,2.079 0.135,0.289 0.441,0.492 0.852,0.375 l 1.914,-0.549 c 0.411,-0.118 0.561,-0.454 0.524,-0.77 z"
   id="path13"
   inkscape:connector-curvature="0"
   style="fill:#000000" />
	<path
   d="m 26.078,54.419 c 0.52,1.884 2.188,2.743 1.74,0.083 -0.158,-0.945 -0.328,-1.539 -0.443,-1.9 -0.518,-1.807 -1.334,-3.308 -2.371,-4.071 -0.809,-0.599 -1.613,0.545 -0.805,1.144 0.678,0.498 1.383,1.734 1.842,3.459 -0.103,0.397 -0.127,0.69 0.037,1.285 z"
   id="path15"
   inkscape:connector-curvature="0"
   style="fill:#000000" />
	<path
   d="m 78.395,49.673 c 0.812,-0.599 0.008,-1.742 -0.803,-1.144 -1.037,0.764 -1.852,2.265 -2.369,4.073 -0.117,0.36 -0.285,0.953 -0.443,1.899 -0.446,2.66 1.224,1.801 1.74,-0.083 0.164,-0.595 0.14,-0.888 0.033,-1.286 0.461,-1.725 1.166,-2.961 1.842,-3.459 z"
   id="path17"
   inkscape:connector-curvature="0"
   style="fill:#000000" />
	<path
   d="m 54.973,45.059 c -0.451,0.303 -0.672,0.718 -0.725,1.124 1.129,-0.324 2.182,-0.785 3.664,-1.196 2.709,-0.752 7.596,-1.337 11.496,-1.039 -1.67,-0.946 -3.391,-1.431 -5.529,-1.515 -3.219,-0.129 -6.279,0.862 -8.906,2.626 z"
   id="path19"
   inkscape:connector-curvature="0"
   style="fill:#000000" />
	<path
   d="m 46.791,50.996 c -0.086,-0.226 -0.198,-0.441 -0.324,-0.65 -0.024,-0.04 -0.049,-0.08 -0.075,-0.119 0.002,0.003 0.004,0.007 0.006,0.01 -0.104,-0.164 -0.224,-0.319 -0.349,-0.472 -0.036,-0.044 -0.063,-0.093 -0.101,-0.136 -0.002,-0.003 -0.004,-0.006 -0.007,-0.009 -0.008,-0.009 -0.016,-0.017 -0.024,-0.025 -0.116,-0.129 -0.239,-0.255 -0.37,-0.375 0.097,0.09 0.184,0.185 0.273,0.277 -0.091,-0.095 -0.179,-0.19 -0.277,-0.28 -0.203,-0.187 -0.422,-0.361 -0.678,-0.537 -0.49,-0.336 -1.047,-0.615 -1.645,-0.83 -0.934,-0.178 -2.111,-0.331 -3.602,-0.452 -1.219,0.112 -2.338,0.492 -3.236,1.09 l -1.166,-0.519 c -0.885,-0.393 -1.475,0.934 -0.59,1.327 l 0.578,0.259 c -0.059,0.075 -0.117,0.155 -0.174,0.234 l -1.309,-0.375 c -0.93,-0.268 -1.332,1.128 -0.4,1.396 l 1.912,0.549 c 0.41,0.117 0.717,-0.086 0.877,-0.416 0.568,-1.058 1.951,-1.91 3.777,-2.04 -0.648,0.332 -1.111,0.983 -1.166,1.762 -0.084,1.182 0.807,2.205 1.988,2.289 1.18,0.082 2.205,-0.809 2.287,-1.988 0.053,-0.746 -0.281,-1.427 -0.83,-1.85 1.176,0.31 2.115,0.902 2.697,1.598 0.232,0.279 0.41,0.574 0.521,0.876 0.057,0.15 0.139,0.263 0.254,0.358 0.039,0.029 0.082,0.057 0.143,0.084 l 0.062,0.023 0.074,0.021 0.061,0.011 c 0.291,0.036 0.607,-0.097 0.773,-0.352 0.119,-0.178 0.162,-0.412 0.062,-0.68 L 46.79,50.989 v 0.007 z"
   id="path21"
   inkscape:connector-curvature="0"
   style="fill:#000000" />
	<path
   d="m 48.357,46.262 c -0.033,-0.434 -0.256,-0.882 -0.732,-1.203 -2.631,-1.763 -5.691,-2.754 -8.906,-2.626 -2.141,0.084 -3.861,0.569 -5.547,1.525 3.902,-0.282 8.648,0.292 11.305,1.029 1.33,0.367 2.572,0.927 3.88,1.275 z"
   id="path23"
   inkscape:connector-curvature="0"
   style="fill:#000000" />
	<path
   style="fill:#000000"
   d="m 46.467,50.346 0.005,0.008 -0.005,-0.008 z"
   id="polygon25"
   inkscape:connector-curvature="0" />
	<path
   d="m 64.686,60.637 c 7.187,-0.705 7.398,-5.481 7.666,-7.666 0.168,-1.387 0.183,-2.25 1.027,-2.875 0.471,-0.414 0.639,-0.706 0.639,-1.071 v -2.618 c 0,-0.243 -0.125,-0.458 -0.313,-0.581 -0.902,-0.525 -4.027,-1.282 -8.777,-1.105 -5.538,0.206 -9.125,1.817 -10.395,2.263 -1.22,0.43 -3.185,0.425 -3.339,0.424 -0.149,10e-4 -2.116,0.006 -3.335,-0.424 -1.27,-0.445 -4.855,-2.057 -10.395,-2.263 -4.75,-0.177 -7.873,0.58 -8.777,1.105 -0.189,0.124 -0.316,0.338 -0.316,0.581 v 2.618 c 0,0.365 0.172,0.657 0.641,1.071 0.846,0.625 0.857,1.489 1.027,2.875 0.268,2.185 0.48,6.961 7.664,7.666 6.766,0.66 9.641,-3.002 10.686,-5.729 1.033,-2.688 1.01,-4.009 2.807,-4.015 1.799,0.006 1.775,1.326 2.807,4.015 1.044,2.727 3.919,6.389 10.683,5.729 z M 47.41,52.884 c -0.314,3.604 -3.348,6.91 -8.477,6.91 -4.115,0 -7.439,-2.331 -7.475,-7.081 -0.043,-6.073 3.588,-6.456 7.693,-6.158 9.529,0.688 8.583,2.643 8.259,6.329 z m 7.569,0 c -0.324,-3.686 -1.27,-5.641 8.258,-6.329 4.105,-0.298 7.738,0.085 7.691,6.158 -0.033,4.75 -3.357,7.081 -7.475,7.081 -5.127,0 -8.16,-3.306 -8.474,-6.91 z"
   id="path27"
   inkscape:connector-curvature="0"
   style="fill:#000000" />
</g>
<path
   sodipodi:type="arc"
   style="color:#000000;fill:none;stroke:#000000;stroke-width:5;stroke-linecap:round;stroke-linejoin:round;stroke-miterlimit:4;stroke-opacity:1;stroke-dasharray:none;stroke-dashoffset:0;marker:none;visibility:visible;display:inline;overflow:visible;enable-background:accumulate"
   id="path3782"
   sodipodi:cx="58.426197"
   sodipodi:cy="58.951851"
   sodipodi:rx="60.82317"
   sodipodi:ry="60.82317"
   d="m 119.24937,58.951851 a 60.82317,60.82317 0 1 1 -121.6463427,0 60.82317,60.82317 0 1 1 121.6463427,0 z"
   transform="translate(4.8969727,4.3713188)" /></svg>