<?xml version="1.0" encoding="UTF-8" standalone="no"?>
<svg
   xmlns:dc="http://purl.org/dc/elements/1.1/"
   xmlns:cc="http://creativecommons.org/ns#"
   xmlns:rdf="http://www.w3.org/1999/02/22-rdf-syntax-ns#"
   xmlns:svg="http://www.w3.org/2000/svg"
   xmlns="http://www.w3.org/2000/svg"
   xmlns:sodipodi="http://sodipodi.sourceforge.net/DTD/sodipodi-0.dtd"
   xmlns:inkscape="http://www.inkscape.org/namespaces/inkscape"
   version="1.1"
   id="Layer_1"
   x="0px"
   y="0px"
   width="126.64634"
   height="126.64634"
   viewBox="0 0 126.64634 126.64634"
   xml:space="preserve"
   inkscape:version="0.48.5 r10040"
   sodipodi:docname="Trevor.svg"><metadata
   id="metadata33"><rdf:RDF><cc:Work
       rdf:about=""><dc:format>image/svg+xml</dc:format><dc:type
         rdf:resource="http://purl.org/dc/dcmitype/StillImage" /><dc:title /></cc:Work></rdf:RDF></metadata><defs
   id="defs31" /><sodipodi:namedview
   pagecolor="#ffffff"
   bordercolor="#666666"
   borderopacity="1"
   objecttolerance="10"
   gridtolerance="10"
   guidetolerance="10"
   inkscape:pageopacity="0"
   inkscape:pageshadow="2"
   inkscape:window-width="1366"
   inkscape:window-height="706"
   id="namedview29"
   showgrid="false"
   inkscape:zoom="2.36"
   inkscape:cx="62.475717"
   inkscape:cy="62.899441"
   inkscape:window-x="-8"
   inkscape:window-y="-8"
   inkscape:window-maximized="1"
   inkscape:current-layer="Layer_1"
   fit-margin-top="0"
   fit-margin-left="0"
   fit-margin-right="0"
   fit-margin-bottom="0" />
<g
   id="g3"
   transform="translate(12.475717,13.746899)">
	<path
   d="M 83.001,47.459 C 82.188,45.778 80.546,45.077 78.764,45.39 78.3,45.472 77.84,45.623 77.399,45.831 81.548,33.892 81.959,21.514 78.91,15.286 74.068,3.808 61.785,0.628 49.604,0.64 45.545,0.572 42.272,0.889 39.615,1.468 c -1.923,0.422 -3.518,0.98 -4.854,1.631 -3.195,1.565 -4.774,3.624 -5.604,5.409 -1.514,-0.234 -4.555,0.12 -7.576,4.425 -0.469,0.665 -0.942,1.442 -1.411,2.32 -0.963,1.964 -1.578,4.52 -1.849,7.435 -0.177,1.923 -0.207,4.023 -0.083,6.248 0.127,2.328 0.423,4.793 0.888,7.325 0.576,3.104 1.41,6.312 2.517,9.501 -0.376,-0.164 -0.755,-0.286 -1.146,-0.359 -1.72,-0.326 -3.358,0.295 -4.221,1.893 -0.858,1.597 -0.844,3.899 -0.238,6.162 0.546,2.05 1.594,3.949 2.704,5.749 1.174,1.9 2.305,3.247 3.562,3.951 0.989,0.553 2.01,0.675 3.076,0.438 1.025,7.508 3.589,12.422 6.756,15.646 0.005,0.033 0.016,0.068 0.023,0.103 0.597,2.357 3.377,12.319 3.377,12.319 0.346,1.053 1.417,2.305 2.208,3.013 1.41,1.271 3.631,2.577 7.047,3.228 1.391,0.267 2.992,0.43 4.825,0.43 2.142,0 3.971,-0.216 5.527,-0.574 2.879,-0.664 4.816,-1.806 6.105,-2.937 0.884,-0.777 1.449,-1.546 1.796,-2.124 0.369,-0.62 0.498,-1.036 0.498,-1.036 0.424,-1.507 2.757,-9.89 3.367,-12.265 3.231,-3.223 5.86,-8.172 6.905,-15.797 0.922,0.207 1.821,0.142 2.697,-0.25 1.447,-0.647 2.717,-2.129 4.049,-4.319 1.041,-1.718 2.028,-3.517 2.566,-5.468 0.617,-2.226 0.657,-4.489 -0.125,-6.106 z M 62.057,91.198 c -0.291,0.858 -1.19,1.884 -1.84,2.45 -1.088,0.955 -2.79,1.982 -5.425,2.591 -1.433,0.329 -3.14,0.534 -5.178,0.534 -1.726,0 -3.224,-0.148 -4.539,-0.397 -3.145,-0.601 -5.106,-1.785 -6.295,-2.856 -0.64,-0.568 -1.437,-1.49 -1.762,-2.324 0,0 -1.785,-6.391 -2.791,-10.114 3.209,2.418 6.784,3.474 9.904,3.948 1.379,0.902 3.393,1.39 5.43,1.39 2.037,0 4.054,-0.483 5.434,-1.382 3.091,-0.459 6.63,-1.496 9.823,-3.852 -1.013,3.731 -2.761,10.012 -2.761,10.012 z m 19.57,-38.05 c -0.503,1.807 -1.434,3.481 -2.4,5.07 -1.308,2.152 -2.371,3.271 -3.354,3.708 -0.637,0.283 -1.3,0.31 -2.105,0.046 l -0.067,-0.02 c -0.414,-0.37 -1.228,-0.249 -1.312,0.486 -1.714,14.816 -9.363,19.28 -15.775,20.713 0.34,-0.973 -1.122,-1.492 -1.471,-0.514 -0.369,1.045 -2.483,2.225 -5.583,2.225 -3.092,0 -5.195,-1.18 -5.561,-2.225 -0.343,-0.978 -1.797,-0.469 -1.468,0.504 C 36.125,81.698 28.508,77.219 26.798,62.44 26.712,61.701 25.902,61.584 25.485,61.954 l -0.068,0.018 c -0.893,0.289 -1.631,0.232 -2.356,-0.176 -0.892,-0.495 -1.851,-1.555 -3.002,-3.414 -1.024,-1.665 -2.016,-3.432 -2.523,-5.336 -0.561,-2.086 -0.478,-3.924 0.109,-5.017 0.529,-0.989 1.501,-1.299 2.558,-1.099 0.807,0.154 1.684,0.634 2.535,1.429 0.139,0.135 0.283,0.276 0.424,0.43 v -3.331 h 2.011 c 0.137,-0.6 0.317,-1.22 0.509,-1.932 0.213,-0.779 0.397,-1.648 0.466,-2.79 0.059,-1.012 0.022,-2.247 -0.182,-3.833 -0.263,-2.075 -0.81,-4.083 -1.15,-6.139 -0.215,-1.315 -0.299,-2.431 -0.264,-3.379 0.07,-1.666 0.519,-2.615 1.125,-3.167 0.698,-0.634 1.795,-0.906 3.375,-0.833 0.757,0.035 1.577,0.146 2.455,0.309 1.061,-1.418 2.412,-2.778 4.138,-4.029 0.836,-0.609 1.752,0.649 0.911,1.259 -1.368,0.995 -2.474,2.055 -3.37,3.152 -0.514,0.635 -0.965,1.287 -1.36,1.946 l -0.131,0.227 c -1.909,3.295 -2.447,6.785 -2.607,9.736 -0.052,1.03 1.066,1.3 1.487,0.358 1.368,-3.068 4.227,-6.054 8.16,-8.509 -1.808,3.273 -2.928,6.764 -3.07,9.74 0.323,-0.028 0.657,-0.042 0.99,-0.042 0.304,0 0.603,0.014 0.9,0.035 1.317,-2.743 3.765,-5.328 7.119,-7.642 -0.613,1.245 -1.078,2.502 -1.414,3.746 -0.257,0.953 0.613,1.45 1.304,0.75 0.556,-0.562 2.21,-1.129 4.771,-1.857 5.238,-1.486 13.59,-3.454 17.452,-8.32 l 0.045,-0.059 c 2.933,-3.94 2.533,-8.929 -2.599,-11.437 -0.928,-0.458 -0.243,-1.856 0.688,-1.398 5.356,2.62 6.444,7.724 4.175,12.131 0.567,-0.069 1.098,-0.107 1.59,-0.107 1.266,0.003 2.176,0.26 2.795,0.78 0.715,0.599 1.226,1.712 1.211,3.805 -0.015,1.197 -0.198,2.642 -0.572,4.374 -0.012,0.051 -0.02,0.099 -0.021,0.145 -0.023,0.073 -0.043,0.152 -0.065,0.237 -0.388,1.718 -0.636,3.153 -0.787,4.377 -0.207,1.657 -0.218,2.924 -0.136,3.962 0.13,1.601 0.63,2.961 0.938,4.406 h 1.719 v 3.625 c 0.31,-0.365 0.627,-0.686 0.961,-0.966 0.778,-0.666 1.569,-1.064 2.303,-1.194 1.095,-0.195 2.064,0.17 2.568,1.221 0.546,1.126 0.593,2.956 0.027,5.002 z"
   id="path5"
   inkscape:connector-curvature="0" />
	<path
   d="m 38.018,66.398 c 0.788,0.218 1.117,-0.963 0.331,-1.18 -1.682,-0.476 -3.37,1.215 -3.546,2.791 -0.087,0.816 1.133,0.947 1.22,0.135 0.092,-0.837 1.086,-2.008 1.995,-1.746 z"
   id="path7"
   inkscape:connector-curvature="0" />
	<path
   d="m 60.217,67.639 c -1.453,1.106 -4.386,1.764 -10.745,1.764 -6.362,0 -9.288,-0.658 -10.737,-1.764 -0.794,-0.615 -1.711,0.584 -0.913,1.192 0.347,0.267 0.749,0.509 1.211,0.72 0.105,0.065 0.233,0.133 0.393,0.195 0.475,0.197 0.798,0.707 1.272,1.124 0.511,0.455 1.029,0.846 1.556,1.179 1.87,1.236 4.231,2.471 7.224,2.479 2.995,-0.008 5.358,-1.245 7.23,-2.479 0.524,-0.333 1.042,-0.724 1.556,-1.179 0.465,-0.417 0.793,-0.929 1.271,-1.124 0.165,-0.064 0.301,-0.137 0.413,-0.211 0.448,-0.206 0.84,-0.439 1.183,-0.703 0.793,-0.609 -0.117,-1.807 -0.914,-1.193 z m -4.572,3.314 c -0.158,0.091 -0.321,0.183 -0.5,0.271 l -0.252,0.119 c -1.22,0.563 -2.918,0.997 -5.414,0.997 -2.495,0 -4.193,-0.434 -5.416,-0.997 l -0.25,-0.119 c -0.177,-0.088 -0.34,-0.18 -0.497,-0.271 -0.226,-0.133 -0.436,-0.278 -0.641,-0.43 1.783,0.263 4.01,0.384 6.796,0.384 2.792,0 5.028,-0.121 6.813,-0.384 -0.203,0.15 -0.415,0.293 -0.639,0.43 z"
   id="path9"
   inkscape:connector-curvature="0" />
	<path
   d="m 56.034,63.018 c 1.091,-0.027 1.05,-1.66 -0.04,-1.632 -2.975,0.075 -3.697,2.37 -6.425,2.37 -2.931,0 -3.628,-1.883 -6.205,-2.357 -1.072,-0.194 -1.368,1.41 -0.295,1.608 0.983,0.181 1.63,0.606 2.305,1.054 -0.045,0.282 0.064,0.59 0.414,0.75 1.148,0.529 2.369,0.687 3.822,0.694 1.285,-0.009 2.509,-0.163 3.652,-0.694 0.407,-0.189 0.494,-0.569 0.381,-0.89 L 54,63.672 c 0.624,-0.413 1.266,-0.634 2.034,-0.654 z"
   id="path11"
   inkscape:connector-curvature="0" />
	<path
   d="m 19.131,49.81 c -1.005,0.25 -0.633,1.76 0.372,1.512 0.696,-0.174 1.984,0.645 2.993,2.486 -0.257,0.31 -0.328,0.844 -0.159,1.441 0.272,0.932 1.029,1.701 1.697,1.656 1.462,-0.116 0.528,-2.287 0.441,-2.499 -1.083,-2.736 -3.188,-5.129 -5.344,-4.596 z"
   id="path13"
   inkscape:connector-curvature="0" />
	<path
   d="m 62.604,47.004 c -2.896,0 -5.549,1.357 -6.516,3.491 -0.447,0.994 1.039,1.667 1.488,0.674 0.499,-1.093 1.83,-2.064 3.623,-2.404 -0.614,0.412 -1.023,1.116 -1.023,1.915 0,1.268 1.026,2.297 2.297,2.297 1.27,0 2.295,-1.029 2.295,-2.297 0,-0.834 -0.444,-1.569 -1.117,-1.968 1.943,0.273 3.358,1.288 3.886,2.458 0.448,0.993 1.935,0.319 1.489,-0.674 -0.964,-2.125 -3.508,-3.492 -6.422,-3.492 z"
   id="path15"
   inkscape:connector-curvature="0" />
	<path
   d="m 62.277,42.113 c -0.148,0 -0.297,0.004 -0.442,0.012 -0.588,0.083 -1.168,0.193 -1.731,0.333 -2.33,0.767 -4.112,2.729 -4.631,5.16 0.236,-0.022 0.487,-0.112 0.732,-0.284 2.203,-1.566 4.941,-2.512 8.031,-2.512 1.371,0 2.689,0.185 3.921,0.527 -1.235,-1.946 -3.408,-3.236 -5.88,-3.236 z"
   id="path17"
   inkscape:connector-curvature="0" />
	<path
   d="m 36.652,42.113 c -2.516,0 -4.718,1.335 -5.938,3.334 1.326,-0.403 2.76,-0.625 4.252,-0.625 3.095,0 5.832,0.946 8.033,2.512 0.151,0.104 0.298,0.179 0.445,0.227 -0.69,-3.117 -3.468,-5.448 -6.792,-5.448 z"
   id="path19"
   inkscape:connector-curvature="0" />
	<path
   d="m 60.604,65.219 c -0.789,0.215 -0.455,1.396 0.332,1.18 0.908,-0.26 1.904,0.91 1.996,1.746 0.092,0.812 1.305,0.681 1.221,-0.137 -0.178,-1.574 -1.864,-3.265 -3.549,-2.789 z"
   id="path21"
   inkscape:connector-curvature="0" />
	<path
   d="m 74.852,46.378 h -2.303 c -1.191,-4.561 -5.338,-7.926 -10.271,-7.926 -4.422,0 -8.209,2.7 -9.805,6.541 -0.789,-0.704 -1.789,-1.089 -2.978,-1.106 h -0.07 c -1.183,0.018 -2.183,0.405 -2.966,1.106 -1.6,-3.841 -5.389,-6.542 -9.807,-6.541 -4.932,0 -9.082,3.365 -10.271,7.926 h -2.306 v 3.214 h 1.974 c 0.273,5.62 4.916,10.094 10.603,10.094 5.626,0 10.23,-4.375 10.607,-9.903 0.243,-2.621 1.28,-3.128 2.217,-3.148 0.913,0.021 1.945,0.526 2.193,3.148 0.377,5.53 4.983,9.903 10.608,9.903 5.689,0 10.328,-4.473 10.599,-10.094 h 1.976 v -3.214 z m -47.117,2.143 h -2.328 v -1.139 h 2.328 v 1.139 z m 8.916,8.415 c -4.347,0 -7.869,-3.52 -7.869,-7.87 0,-4.347 3.519,-7.872 7.869,-7.872 4.343,0 7.872,3.525 7.872,7.872 0,4.35 -3.528,7.87 -7.872,7.87 z m 25.626,0 c -4.351,0 -7.873,-3.52 -7.873,-7.87 0,-4.347 3.521,-7.872 7.873,-7.872 4.344,0 7.873,3.525 7.873,7.872 -0.002,4.35 -3.529,7.87 -7.873,7.87 z m 11.246,-8.415 h -2.324 v -1.139 h 2.324 v 1.139 z"
   id="path23"
   inkscape:connector-curvature="0" />
	<path
   d="m 36.592,46.994 c -2.913,0 -5.464,1.369 -6.422,3.493 -0.452,0.994 1.037,1.666 1.487,0.673 0.527,-1.169 1.94,-2.185 3.885,-2.458 -0.672,0.402 -1.119,1.132 -1.119,1.971 0,1.267 1.03,2.294 2.298,2.294 1.267,0 2.295,-1.027 2.295,-2.294 0,-0.799 -0.412,-1.503 -1.029,-1.915 1.798,0.339 3.135,1.307 3.627,2.402 0.45,0.995 1.939,0.32 1.489,-0.673 -0.966,-2.133 -3.613,-3.493 -6.511,-3.493 z"
   id="path25"
   inkscape:connector-curvature="0" />
	<path
   d="m 80.078,49.81 c -2.157,-0.531 -4.27,1.861 -5.346,4.596 -0.088,0.21 -1.02,2.384 0.442,2.498 0.662,0.048 1.423,-0.723 1.692,-1.654 0.169,-0.598 0.098,-1.133 -0.155,-1.441 1.007,-1.845 2.292,-2.662 2.991,-2.49 1.009,0.251 1.38,-1.261 0.376,-1.509 z"
   id="path27"
   inkscape:connector-curvature="0" />
</g>
<path
   sodipodi:type="arc"
   style="color:#000000;fill:none;stroke:#000000;stroke-width:5;stroke-linecap:round;stroke-linejoin:round;stroke-miterlimit:4;stroke-opacity:1;stroke-dasharray:none;stroke-dashoffset:0;marker:none;visibility:visible;display:inline;overflow:visible;enable-background:accumulate"
   id="path3782"
   sodipodi:cx="58.426197"
   sodipodi:cy="58.951851"
   sodipodi:rx="60.82317"
   sodipodi:ry="60.82317"
   d="m 119.24937,58.951851 a 60.82317,60.82317 0 1 1 -121.6463427,0 60.82317,60.82317 0 1 1 121.6463427,0 z"
   transform="translate(4.8969727,4.3713188)" /></svg>